<?xml version="1.0" encoding="UTF-8"?>
<svg id="Layer_1" data-name="Layer 1" xmlns="http://www.w3.org/2000/svg" viewBox="0 0 44.78 32.82">
  <defs>
    <style>
      .cls-1 {
        fill: #b49d7d;
      }

      .cls-2 {
        fill: #cdc1a9;
      }

      .cls-3 {
        fill: #5d4b3d;
      }
    </style>
  </defs>
  <polygon class="cls-3" points="28.17 3.52 28.17 3.53 21.78 3.53 28.17 3.52"/>
  <path class="cls-1" d="M28.11,16.72c0,4.72-.06,11.19-.07,12.16v3.94h-13.15,13.14s-13.15-.01-13.15-.01v-3.82s-.07-7.17-.07-12.28,2.64-5.86,2.64-5.86c-1.16-1.41-1.85-2.88-2.22-4.11l.02-.05h0s.02-.06.02-.06c1.2-2.96,5.57-3.1,6.38-3.1h6.52c.01.27.06,3.98-2.7,7.32,0,0,2.64.76,2.64,5.87Z"/>
  <path class="cls-3" d="M21.65,3.53c-.81,0-5.18.14-6.38,3.1l-.02.05c-.56-1.82-.5-3.16-.5-3.16h6.9Z"/>
  <path class="cls-2" d="M44.77,16.38c0,10.51-5.4,13.79-8.33,15.38,0,0-1.92,1.02-4.71,1.05-.68.01-2.03.01-3.69.01v-3.94h2.56s7.63.45,7.63-13.07c0,0,.93-12.29-7.55-12.29h-2.51s-6.39.01-6.39.01h-.13c-.81,0-5.18.14-6.38,3.1l-.02.05h0s-.02.06-.02.06l-8.78,26.07H0L11.28,5.87S13.96.04,21.69.01C29.41-.02,31.72.01,31.72.01c0,0,2.57-.07,4.71,1.05,2.15,1.12,8.34,4.81,8.34,15.32Z"/>
</svg>