<svg width="44" height="36" viewBox="0 0 44 36" fill="none" xmlns="http://www.w3.org/2000/svg">
<path opacity="0.7" d="M2.56015 35.1998L2.30415 34.4318C7.80815 32.2558 14.8482 26.3678 14.8482 20.3518C14.8482 16.1278 10.7522 15.6158 7.29615 15.1038C2.04815 14.3358 0.000152588 10.6238 0.000152588 7.42379C0.000152588 3.45579 3.07215 -0.000213623 7.93615 -0.000213623C13.8242 -0.000213623 19.8402 4.86379 19.8402 14.0798C19.8402 26.1118 10.3682 32.8958 2.56015 35.1998ZM26.6242 35.1998L26.3682 34.4318C31.8722 32.2558 38.9122 26.3678 38.9122 20.3518C38.9122 16.1278 34.8162 15.6158 31.3602 15.1038C26.1122 14.3358 24.0642 10.6238 24.0642 7.42379C24.0642 3.45579 27.1362 -0.000213623 32.0002 -0.000213623C37.8882 -0.000213623 43.9042 4.86379 43.9042 14.0798C43.9042 26.1118 34.4322 32.8958 26.6242 35.1998Z" fill="#BBB098"/>
</svg>
