<svg width="44" height="36" viewBox="0 0 44 36" fill="none" xmlns="http://www.w3.org/2000/svg">
<path opacity="0.7" d="M17.2802 -0.000213623L17.5362 0.767792C12.0322 2.94379 4.99215 8.83179 4.99215 14.8478C4.99215 19.0718 9.08815 19.5838 12.5442 20.0958C17.7922 20.8638 19.8402 24.5758 19.8402 27.7758C19.8402 31.7438 16.7682 35.1998 11.9042 35.1998C6.01615 35.1998 0.000152588 30.3358 0.000152588 21.1198C0.000152588 9.08779 9.47215 2.30379 17.2802 -0.000213623ZM41.3442 -0.000213623L41.6002 0.767792C36.0962 2.94379 29.0562 8.83179 29.0562 14.8478C29.0562 19.0718 33.1522 19.5838 36.6082 20.0958C41.8562 20.8638 43.9042 24.5758 43.9042 27.7758C43.9042 31.7438 40.8322 35.1998 35.9682 35.1998C30.0802 35.1998 24.0642 30.3358 24.0642 21.1198C24.0642 9.08779 33.5362 2.30379 41.3442 -0.000213623Z" fill="#BBB098"/>
</svg>
